<svg width="21" height="20" viewBox="0 0 21 20" fill="none" xmlns="http://www.w3.org/2000/svg">
<path d="M10.2325 6.66525C8.40645 6.66525 6.91626 8.16376 6.91626 10C6.91626 11.8362 8.40645 13.3348 10.2325 13.3348C12.0585 13.3348 13.5487 11.8362 13.5487 10C13.5487 8.16376 12.0585 6.66525 10.2325 6.66525ZM20.1787 10C20.1787 8.61907 20.1911 7.25064 20.114 5.87221C20.0369 4.27113 19.6737 2.85017 18.5094 1.67938C17.3426 0.506085 15.932 0.14334 14.3398 0.065788C12.9666 -0.0117644 11.6058 0.000744113 10.235 0.000744113C8.86172 0.000744113 7.50089 -0.0117644 6.13012 0.065788C4.53793 0.14334 3.12486 0.508587 1.96058 1.67938C0.793802 2.85267 0.433072 4.27113 0.35595 5.87221C0.278828 7.25314 0.291267 8.62157 0.291267 10C0.291267 11.3784 0.278828 12.7494 0.35595 14.1278C0.433072 15.7289 0.79629 17.1498 1.96058 18.3206C3.12735 19.4939 4.53793 19.8567 6.13012 19.9342C7.50338 20.0118 8.8642 19.9993 10.235 19.9993C11.6082 19.9993 12.9691 20.0118 14.3398 19.9342C15.932 19.8567 17.3451 19.4914 18.5094 18.3206C19.6762 17.1473 20.0369 15.7289 20.114 14.1278C20.1936 12.7494 20.1787 11.3809 20.1787 10ZM10.2325 15.131C7.40884 15.131 5.13003 12.8394 5.13003 10C5.13003 7.16058 7.40884 4.86903 10.2325 4.86903C13.0561 4.86903 15.335 7.16058 15.335 10C15.335 12.8394 13.0561 15.131 10.2325 15.131ZM15.5439 5.8572C14.8847 5.8572 14.3523 5.32184 14.3523 4.65889C14.3523 3.99594 14.8847 3.46058 15.5439 3.46058C16.2032 3.46058 16.7356 3.99594 16.7356 4.65889C16.7358 4.81631 16.7051 4.97222 16.6453 5.1177C16.5855 5.26317 16.4977 5.39535 16.387 5.50666C16.2763 5.61798 16.1449 5.70624 16.0002 5.76639C15.8555 5.82654 15.7005 5.8574 15.5439 5.8572Z" fill="black"/>
</svg>
