<svg width="26" height="20" viewBox="0 0 26 20" fill="none" xmlns="http://www.w3.org/2000/svg">
<path d="M25.7867 2.35294C24.8716 2.76471 23.8852 3.03529 22.8632 3.16471C23.909 2.54118 24.7171 1.55294 25.0974 0.364706C24.111 0.952941 23.0177 1.36471 21.8649 1.6C20.9261 0.588235 19.607 0 18.1096 0C15.3168 0 13.035 2.25882 13.035 5.04706C13.035 5.44706 13.0826 5.83529 13.1658 6.2C8.93501 5.98824 5.16774 3.97647 2.66019 0.929412C2.22048 1.67059 1.97091 2.54118 1.97091 3.45882C1.97091 5.21176 2.86222 6.76471 4.24078 7.64706C3.39701 7.64706 2.61266 7.41177 1.92338 7.05882V7.09412C1.92338 9.54118 3.68223 11.5882 6.01152 12.0471C5.26368 12.2497 4.47858 12.2778 3.71788 12.1294C4.04066 13.1323 4.67281 14.0099 5.52548 14.6387C6.37814 15.2676 7.40843 15.6161 8.47153 15.6353C6.66946 17.0476 4.43568 17.811 2.13729 17.8C1.73323 17.8 1.32917 17.7765 0.92511 17.7294C3.18309 19.1647 5.86891 20 8.74486 20C18.1096 20 23.2554 12.3059 23.2554 5.63529C23.2554 5.41177 23.2554 5.2 23.2435 4.97647C24.2418 4.27059 25.0974 3.37647 25.7867 2.35294Z" fill="black"/>
</svg>
